solid Part1
   facet normal -1.000000e+00 0.000000e+00 0.000000e+00
      outer loop
         vertex 0.000000e+00 0.000000e+00 1.590040e+02
         vertex 0.000000e+00 5.232640e+01 1.590040e+02
         vertex 0.000000e+00 0.000000e+00 4.292600e+01
      endloop
   endfacet
   facet normal -1.000000e+00 0.000000e+00 -0.000000e+00
      outer loop
         vertex 0.000000e+00 5.232640e+01 1.590040e+02
         vertex 0.000000e+00 5.232640e+01 4.292600e+01
         vertex 0.000000e+00 0.000000e+00 4.292600e+01
      endloop
   endfacet
   facet normal 0.000000e+00 -1.000000e+00 0.000000e+00
      outer loop
         vertex 1.052007e+02 0.000000e+00 4.292600e+01
         vertex 0.000000e+00 0.000000e+00 1.590040e+02
         vertex 0.000000e+00 0.000000e+00 4.292600e+01
      endloop
   endfacet
   facet normal 0.000000e+00 -0.000000e+00 -1.000000e+00
      outer loop
         vertex 3.495441e+01 1.294649e+01 4.292600e+01
         vertex 6.344540e+01 1.294649e+01 4.292600e+01
         vertex 0.000000e+00 0.000000e+00 4.292600e+01
      endloop
   endfacet
   facet normal 0.000000e+00 -0.000000e+00 -1.000000e+00
      outer loop
         vertex 3.495441e+01 3.483166e+01 4.292600e+01
         vertex 3.495441e+01 1.294649e+01 4.292600e+01
         vertex 0.000000e+00 0.000000e+00 4.292600e+01
      endloop
   endfacet
   facet normal 0.000000e+00 0.000000e+00 -1.000000e+00
      outer loop
         vertex 0.000000e+00 5.232640e+01 4.292600e+01
         vertex 3.495441e+01 3.483166e+01 4.292600e+01
         vertex 0.000000e+00 0.000000e+00 4.292600e+01
      endloop
   endfacet
   facet normal 0.000000e+00 -0.000000e+00 -1.000000e+00
      outer loop
         vertex 6.344540e+01 1.294649e+01 4.292600e+01
         vertex 1.052007e+02 0.000000e+00 4.292600e+01
         vertex 0.000000e+00 0.000000e+00 4.292600e+01
      endloop
   endfacet
   facet normal -0.000000e+00 -1.000000e+00 -0.000000e+00
      outer loop
         vertex 1.052007e+02 0.000000e+00 1.590040e+02
         vertex 0.000000e+00 0.000000e+00 1.590040e+02
         vertex 1.052007e+02 0.000000e+00 4.292600e+01
      endloop
   endfacet
   facet normal 1.000000e+00 0.000000e+00 0.000000e+00
      outer loop
         vertex 1.052007e+02 5.232640e+01 4.292600e+01
         vertex 1.052007e+02 0.000000e+00 1.590040e+02
         vertex 1.052007e+02 0.000000e+00 4.292600e+01
      endloop
   endfacet
   facet normal 0.000000e+00 0.000000e+00 -1.000000e+00
      outer loop
         vertex 6.344540e+01 1.294649e+01 4.292600e+01
         vertex 1.052007e+02 5.232640e+01 4.292600e+01
         vertex 1.052007e+02 0.000000e+00 4.292600e+01
      endloop
   endfacet
   facet normal 0.000000e+00 -0.000000e+00 1.000000e+00
      outer loop
         vertex 1.052007e+02 0.000000e+00 1.590040e+02
         vertex 1.052007e+02 5.232640e+01 1.590040e+02
         vertex 0.000000e+00 0.000000e+00 1.590040e+02
      endloop
   endfacet
   facet normal 0.000000e+00 0.000000e+00 1.000000e+00
      outer loop
         vertex 1.052007e+02 5.232640e+01 1.590040e+02
         vertex 0.000000e+00 5.232640e+01 1.590040e+02
         vertex 0.000000e+00 0.000000e+00 1.590040e+02
      endloop
   endfacet
   facet normal 1.000000e+00 0.000000e+00 -0.000000e+00
      outer loop
         vertex 1.052007e+02 5.232640e+01 4.292600e+01
         vertex 1.052007e+02 5.232640e+01 1.590040e+02
         vertex 1.052007e+02 0.000000e+00 1.590040e+02
      endloop
   endfacet
   facet normal 1.000000e+00 0.000000e+00 0.000000e+00
      outer loop
         vertex 2.803201e+01 5.232640e+01 1.263143e+02
         vertex 2.803201e+01 9.400402e+00 1.263143e+02
         vertex 2.803201e+01 9.400402e+00 7.914435e+01
      endloop
   endfacet
   facet normal 1.000000e+00 0.000000e+00 -0.000000e+00
      outer loop
         vertex 2.803201e+01 5.232640e+01 7.914435e+01
         vertex 2.803201e+01 5.232640e+01 1.263143e+02
         vertex 2.803201e+01 9.400402e+00 7.914435e+01
      endloop
   endfacet
   facet normal 0.000000e+00 0.000000e+00 1.000000e+00
      outer loop
         vertex 7.800248e+01 9.400402e+00 7.914435e+01
         vertex 2.803201e+01 5.232640e+01 7.914435e+01
         vertex 2.803201e+01 9.400402e+00 7.914435e+01
      endloop
   endfacet
   facet normal 0.000000e+00 1.000000e+00 0.000000e+00
      outer loop
         vertex 2.803201e+01 9.400402e+00 1.263143e+02
         vertex 7.800248e+01 9.400402e+00 7.914435e+01
         vertex 2.803201e+01 9.400402e+00 7.914435e+01
      endloop
   endfacet
   facet normal 0.000000e+00 0.000000e+00 1.000000e+00
      outer loop
         vertex 7.800248e+01 5.232640e+01 7.914435e+01
         vertex 2.803201e+01 5.232640e+01 7.914435e+01
         vertex 7.800248e+01 9.400402e+00 7.914435e+01
      endloop
   endfacet
   facet normal -1.000000e+00 0.000000e+00 0.000000e+00
      outer loop
         vertex 7.800248e+01 9.400402e+00 1.263143e+02
         vertex 7.800248e+01 5.232640e+01 7.914435e+01
         vertex 7.800248e+01 9.400402e+00 7.914435e+01
      endloop
   endfacet
   facet normal -0.000000e+00 1.000000e+00 0.000000e+00
      outer loop
         vertex 2.803201e+01 9.400402e+00 1.263143e+02
         vertex 7.800248e+01 9.400402e+00 1.263143e+02
         vertex 7.800248e+01 9.400402e+00 7.914435e+01
      endloop
   endfacet
   facet normal 0.000000e+00 -0.000000e+00 -1.000000e+00
      outer loop
         vertex 7.800248e+01 5.232640e+01 1.263143e+02
         vertex 7.800248e+01 9.400402e+00 1.263143e+02
         vertex 2.803201e+01 9.400402e+00 1.263143e+02
      endloop
   endfacet
   facet normal 0.000000e+00 0.000000e+00 -1.000000e+00
      outer loop
         vertex 2.803201e+01 5.232640e+01 1.263143e+02
         vertex 7.800248e+01 5.232640e+01 1.263143e+02
         vertex 2.803201e+01 9.400402e+00 1.263143e+02
      endloop
   endfacet
   facet normal -1.000000e+00 -0.000000e+00 -0.000000e+00
      outer loop
         vertex 7.800248e+01 5.232640e+01 1.263143e+02
         vertex 7.800248e+01 5.232640e+01 7.914435e+01
         vertex 7.800248e+01 9.400402e+00 1.263143e+02
      endloop
   endfacet
   facet normal -1.000000e+00 0.000000e+00 -0.000000e+00
      outer loop
         vertex 3.495441e+01 3.483166e+01 4.292600e+01
         vertex 3.495441e+01 3.483166e+01 0.000000e+00
         vertex 3.495441e+01 1.294649e+01 0.000000e+00
      endloop
   endfacet
   facet normal -1.000000e+00 0.000000e+00 0.000000e+00
      outer loop
         vertex 3.495441e+01 1.294649e+01 4.292600e+01
         vertex 3.495441e+01 3.483166e+01 4.292600e+01
         vertex 3.495441e+01 1.294649e+01 0.000000e+00
      endloop
   endfacet
   facet normal 0.000000e+00 -1.000000e+00 0.000000e+00
      outer loop
         vertex 6.344540e+01 1.294649e+01 0.000000e+00
         vertex 3.495441e+01 1.294649e+01 4.292600e+01
         vertex 3.495441e+01 1.294649e+01 0.000000e+00
      endloop
   endfacet
   facet normal 0.000000e+00 0.000000e+00 -1.000000e+00
      outer loop
         vertex 3.495441e+01 3.483166e+01 0.000000e+00
         vertex 6.344540e+01 1.294649e+01 0.000000e+00
         vertex 3.495441e+01 1.294649e+01 0.000000e+00
      endloop
   endfacet
   facet normal 1.000000e+00 0.000000e+00 0.000000e+00
      outer loop
         vertex 6.344540e+01 3.483166e+01 0.000000e+00
         vertex 6.344540e+01 1.294649e+01 4.292600e+01
         vertex 6.344540e+01 1.294649e+01 0.000000e+00
      endloop
   endfacet
   facet normal -0.000000e+00 -1.000000e+00 -0.000000e+00
      outer loop
         vertex 6.344540e+01 1.294649e+01 4.292600e+01
         vertex 3.495441e+01 1.294649e+01 4.292600e+01
         vertex 6.344540e+01 1.294649e+01 0.000000e+00
      endloop
   endfacet
   facet normal 0.000000e+00 0.000000e+00 -1.000000e+00
      outer loop
         vertex 3.495441e+01 3.483166e+01 0.000000e+00
         vertex 6.344540e+01 3.483166e+01 0.000000e+00
         vertex 6.344540e+01 1.294649e+01 0.000000e+00
      endloop
   endfacet
   facet normal 0.000000e+00 0.000000e+00 -1.000000e+00
      outer loop
         vertex 6.344540e+01 3.483166e+01 4.292600e+01
         vertex 1.052007e+02 5.232640e+01 4.292600e+01
         vertex 6.344540e+01 1.294649e+01 4.292600e+01
      endloop
   endfacet
   facet normal 1.000000e+00 0.000000e+00 -0.000000e+00
      outer loop
         vertex 6.344540e+01 3.483166e+01 0.000000e+00
         vertex 6.344540e+01 3.483166e+01 4.292600e+01
         vertex 6.344540e+01 1.294649e+01 4.292600e+01
      endloop
   endfacet
   facet normal 0.000000e+00 1.000000e+00 0.000000e+00
      outer loop
         vertex 6.344540e+01 3.483166e+01 4.292600e+01
         vertex 6.344540e+01 3.483166e+01 0.000000e+00
         vertex 3.495441e+01 3.483166e+01 0.000000e+00
      endloop
   endfacet
   facet normal -0.000000e+00 1.000000e+00 0.000000e+00
      outer loop
         vertex 3.495441e+01 3.483166e+01 4.292600e+01
         vertex 6.344540e+01 3.483166e+01 4.292600e+01
         vertex 3.495441e+01 3.483166e+01 0.000000e+00
      endloop
   endfacet
   facet normal 0.000000e+00 0.000000e+00 -1.000000e+00
      outer loop
         vertex 0.000000e+00 5.232640e+01 4.292600e+01
         vertex 6.344540e+01 3.483166e+01 4.292600e+01
         vertex 3.495441e+01 3.483166e+01 4.292600e+01
      endloop
   endfacet
   facet normal 0.000000e+00 0.000000e+00 -1.000000e+00
      outer loop
         vertex 0.000000e+00 5.232640e+01 4.292600e+01
         vertex 1.052007e+02 5.232640e+01 4.292600e+01
         vertex 6.344540e+01 3.483166e+01 4.292600e+01
      endloop
   endfacet
   facet normal 0.000000e+00 1.000000e+00 0.000000e+00
      outer loop
         vertex 2.803201e+01 5.232640e+01 7.914435e+01
         vertex 1.052007e+02 5.232640e+01 4.292600e+01
         vertex 0.000000e+00 5.232640e+01 4.292600e+01
      endloop
   endfacet
   facet normal 0.000000e+00 1.000000e+00 0.000000e+00
      outer loop
         vertex 2.803201e+01 5.232640e+01 1.263143e+02
         vertex 2.803201e+01 5.232640e+01 7.914435e+01
         vertex 0.000000e+00 5.232640e+01 4.292600e+01
      endloop
   endfacet
   facet normal 0.000000e+00 1.000000e+00 0.000000e+00
      outer loop
         vertex 0.000000e+00 5.232640e+01 1.590040e+02
         vertex 2.803201e+01 5.232640e+01 1.263143e+02
         vertex 0.000000e+00 5.232640e+01 4.292600e+01
      endloop
   endfacet
   facet normal -0.000000e+00 1.000000e+00 0.000000e+00
      outer loop
         vertex 7.800248e+01 5.232640e+01 7.914435e+01
         vertex 1.052007e+02 5.232640e+01 1.590040e+02
         vertex 1.052007e+02 5.232640e+01 4.292600e+01
      endloop
   endfacet
   facet normal -0.000000e+00 1.000000e+00 0.000000e+00
      outer loop
         vertex 2.803201e+01 5.232640e+01 7.914435e+01
         vertex 7.800248e+01 5.232640e+01 7.914435e+01
         vertex 1.052007e+02 5.232640e+01 4.292600e+01
      endloop
   endfacet
   facet normal -0.000000e+00 1.000000e+00 0.000000e+00
      outer loop
         vertex 7.800248e+01 5.232640e+01 1.263143e+02
         vertex 1.052007e+02 5.232640e+01 1.590040e+02
         vertex 7.800248e+01 5.232640e+01 7.914435e+01
      endloop
   endfacet
   facet normal 0.000000e+00 1.000000e+00 0.000000e+00
      outer loop
         vertex 0.000000e+00 5.232640e+01 1.590040e+02
         vertex 7.800248e+01 5.232640e+01 1.263143e+02
         vertex 2.803201e+01 5.232640e+01 1.263143e+02
      endloop
   endfacet
   facet normal -0.000000e+00 1.000000e+00 0.000000e+00
      outer loop
         vertex 0.000000e+00 5.232640e+01 1.590040e+02
         vertex 1.052007e+02 5.232640e+01 1.590040e+02
         vertex 7.800248e+01 5.232640e+01 1.263143e+02
      endloop
   endfacet
endsolid